<mxfile host="app.diagrams.net" agent="Mozilla/5.0 (Macintosh; Intel Mac OS X 10_15_7) AppleWebKit/537.36 (KHTML, like Gecko) Chrome/138.0.0.0 Safari/537.36" version="27.1.3">
  <diagram name="Page-1" id="_i_HYf79l50bPWmqCzhl">
    <mxGraphModel dx="1402" dy="704" grid="1" gridSize="10" guides="1" tooltips="1" connect="1" arrows="1" fold="1" page="1" pageScale="1" pageWidth="827" pageHeight="1169" math="0" shadow="0">
      <root>
        <mxCell id="0" />
        <mxCell id="1" parent="0" />
        <mxCell id="RZ17mvf2KzQFwTA37UVQ-1" value="Competition" style="swimlane;fontStyle=1;align=center;verticalAlign=top;childLayout=stackLayout;horizontal=1;startSize=35.55555555555556;horizontalStack=0;resizeParent=1;resizeParentMax=0;resizeLast=0;collapsible=0;marginBottom=0;" vertex="1" parent="1">
          <mxGeometry x="558" y="20" width="194" height="161.55555555555554" as="geometry" />
        </mxCell>
        <mxCell id="RZ17mvf2KzQFwTA37UVQ-2" value="+id: long" style="text;strokeColor=none;fillColor=none;align=left;verticalAlign=top;spacingLeft=4;spacingRight=4;overflow=hidden;rotatable=0;points=[[0,0.5],[1,0.5]];portConstraint=eastwest;" vertex="1" parent="RZ17mvf2KzQFwTA37UVQ-1">
          <mxGeometry y="35.55555555555556" width="194" height="36" as="geometry" />
        </mxCell>
        <mxCell id="RZ17mvf2KzQFwTA37UVQ-3" value="+internalId: UUID" style="text;strokeColor=none;fillColor=none;align=left;verticalAlign=top;spacingLeft=4;spacingRight=4;overflow=hidden;rotatable=0;points=[[0,0.5],[1,0.5]];portConstraint=eastwest;" vertex="1" parent="RZ17mvf2KzQFwTA37UVQ-1">
          <mxGeometry y="71.55555555555556" width="194" height="36" as="geometry" />
        </mxCell>
        <mxCell id="RZ17mvf2KzQFwTA37UVQ-4" value="+name: String" style="text;strokeColor=none;fillColor=none;align=left;verticalAlign=top;spacingLeft=4;spacingRight=4;overflow=hidden;rotatable=0;points=[[0,0.5],[1,0.5]];portConstraint=eastwest;" vertex="1" parent="RZ17mvf2KzQFwTA37UVQ-1">
          <mxGeometry y="107.55555555555556" width="194" height="36" as="geometry" />
        </mxCell>
        <mxCell id="RZ17mvf2KzQFwTA37UVQ-5" style="line;strokeWidth=1;fillColor=none;align=left;verticalAlign=middle;spacingTop=-1;spacingLeft=3;spacingRight=3;rotatable=0;labelPosition=right;points=[];portConstraint=eastwest;strokeColor=inherit;" vertex="1" parent="RZ17mvf2KzQFwTA37UVQ-1">
          <mxGeometry y="143.55555555555554" width="194" height="18" as="geometry" />
        </mxCell>
        <mxCell id="RZ17mvf2KzQFwTA37UVQ-6" value="SlideDeck" style="swimlane;fontStyle=1;align=center;verticalAlign=top;childLayout=stackLayout;horizontal=1;startSize=33.45454545454545;horizontalStack=0;resizeParent=1;resizeParentMax=0;resizeLast=0;collapsible=0;marginBottom=0;" vertex="1" parent="1">
          <mxGeometry x="200" y="238" width="203" height="182.45454545454544" as="geometry" />
        </mxCell>
        <mxCell id="RZ17mvf2KzQFwTA37UVQ-7" value="+id: long" style="text;strokeColor=none;fillColor=none;align=left;verticalAlign=top;spacingLeft=4;spacingRight=4;overflow=hidden;rotatable=0;points=[[0,0.5],[1,0.5]];portConstraint=eastwest;" vertex="1" parent="RZ17mvf2KzQFwTA37UVQ-6">
          <mxGeometry y="33.45454545454545" width="203" height="33" as="geometry" />
        </mxCell>
        <mxCell id="RZ17mvf2KzQFwTA37UVQ-8" value="+name: String" style="text;strokeColor=none;fillColor=none;align=left;verticalAlign=top;spacingLeft=4;spacingRight=4;overflow=hidden;rotatable=0;points=[[0,0.5],[1,0.5]];portConstraint=eastwest;" vertex="1" parent="RZ17mvf2KzQFwTA37UVQ-6">
          <mxGeometry y="66.45454545454545" width="203" height="33" as="geometry" />
        </mxCell>
        <mxCell id="RZ17mvf2KzQFwTA37UVQ-9" value="+transitionTime: int" style="text;strokeColor=none;fillColor=none;align=left;verticalAlign=top;spacingLeft=4;spacingRight=4;overflow=hidden;rotatable=0;points=[[0,0.5],[1,0.5]];portConstraint=eastwest;" vertex="1" parent="RZ17mvf2KzQFwTA37UVQ-6">
          <mxGeometry y="99.45454545454545" width="203" height="33" as="geometry" />
        </mxCell>
        <mxCell id="RZ17mvf2KzQFwTA37UVQ-10" value="+version: int" style="text;strokeColor=none;fillColor=none;align=left;verticalAlign=top;spacingLeft=4;spacingRight=4;overflow=hidden;rotatable=0;points=[[0,0.5],[1,0.5]];portConstraint=eastwest;" vertex="1" parent="RZ17mvf2KzQFwTA37UVQ-6">
          <mxGeometry y="132.45454545454544" width="203" height="33" as="geometry" />
        </mxCell>
        <mxCell id="RZ17mvf2KzQFwTA37UVQ-11" style="line;strokeWidth=1;fillColor=none;align=left;verticalAlign=middle;spacingTop=-1;spacingLeft=3;spacingRight=3;rotatable=0;labelPosition=right;points=[];portConstraint=eastwest;strokeColor=inherit;" vertex="1" parent="RZ17mvf2KzQFwTA37UVQ-6">
          <mxGeometry y="165.45454545454544" width="203" height="17" as="geometry" />
        </mxCell>
        <mxCell id="RZ17mvf2KzQFwTA37UVQ-12" value="Category" style="swimlane;fontStyle=1;align=center;verticalAlign=top;childLayout=stackLayout;horizontal=1;startSize=35.55555555555556;horizontalStack=0;resizeParent=1;resizeParentMax=0;resizeLast=0;collapsible=0;marginBottom=0;" vertex="1" parent="1">
          <mxGeometry x="502" y="916" width="306" height="161.55555555555554" as="geometry" />
        </mxCell>
        <mxCell id="RZ17mvf2KzQFwTA37UVQ-13" value="+id: long" style="text;strokeColor=none;fillColor=none;align=left;verticalAlign=top;spacingLeft=4;spacingRight=4;overflow=hidden;rotatable=0;points=[[0,0.5],[1,0.5]];portConstraint=eastwest;" vertex="1" parent="RZ17mvf2KzQFwTA37UVQ-12">
          <mxGeometry y="35.55555555555556" width="306" height="36" as="geometry" />
        </mxCell>
        <mxCell id="RZ17mvf2KzQFwTA37UVQ-14" value="+name: String" style="text;strokeColor=none;fillColor=none;align=left;verticalAlign=top;spacingLeft=4;spacingRight=4;overflow=hidden;rotatable=0;points=[[0,0.5],[1,0.5]];portConstraint=eastwest;" vertex="1" parent="RZ17mvf2KzQFwTA37UVQ-12">
          <mxGeometry y="71.55555555555556" width="306" height="36" as="geometry" />
        </mxCell>
        <mxCell id="RZ17mvf2KzQFwTA37UVQ-15" value="+categoryScoring: CategoryScoring" style="text;strokeColor=none;fillColor=none;align=left;verticalAlign=top;spacingLeft=4;spacingRight=4;overflow=hidden;rotatable=0;points=[[0,0.5],[1,0.5]];portConstraint=eastwest;" vertex="1" parent="RZ17mvf2KzQFwTA37UVQ-12">
          <mxGeometry y="107.55555555555556" width="306" height="36" as="geometry" />
        </mxCell>
        <mxCell id="RZ17mvf2KzQFwTA37UVQ-16" style="line;strokeWidth=1;fillColor=none;align=left;verticalAlign=middle;spacingTop=-1;spacingLeft=3;spacingRight=3;rotatable=0;labelPosition=right;points=[];portConstraint=eastwest;strokeColor=inherit;" vertex="1" parent="RZ17mvf2KzQFwTA37UVQ-12">
          <mxGeometry y="143.55555555555554" width="306" height="18" as="geometry" />
        </mxCell>
        <mxCell id="RZ17mvf2KzQFwTA37UVQ-17" value="Slide" style="swimlane;fontStyle=1;align=center;verticalAlign=top;childLayout=stackLayout;horizontal=1;startSize=36.8;horizontalStack=0;resizeParent=1;resizeParentMax=0;resizeLast=0;collapsible=0;marginBottom=0;" vertex="1" parent="1">
          <mxGeometry x="196" y="480" width="212" height="192.8" as="geometry" />
        </mxCell>
        <mxCell id="RZ17mvf2KzQFwTA37UVQ-18" value="+id: long" style="text;strokeColor=none;fillColor=none;align=left;verticalAlign=top;spacingLeft=4;spacingRight=4;overflow=hidden;rotatable=0;points=[[0,0.5],[1,0.5]];portConstraint=eastwest;" vertex="1" parent="RZ17mvf2KzQFwTA37UVQ-17">
          <mxGeometry y="36.8" width="212" height="37" as="geometry" />
        </mxCell>
        <mxCell id="RZ17mvf2KzQFwTA37UVQ-19" value="+name: String" style="text;strokeColor=none;fillColor=none;align=left;verticalAlign=top;spacingLeft=4;spacingRight=4;overflow=hidden;rotatable=0;points=[[0,0.5],[1,0.5]];portConstraint=eastwest;" vertex="1" parent="RZ17mvf2KzQFwTA37UVQ-17">
          <mxGeometry y="73.8" width="212" height="37" as="geometry" />
        </mxCell>
        <mxCell id="RZ17mvf2KzQFwTA37UVQ-20" value="+index: int" style="text;strokeColor=none;fillColor=none;align=left;verticalAlign=top;spacingLeft=4;spacingRight=4;overflow=hidden;rotatable=0;points=[[0,0.5],[1,0.5]];portConstraint=eastwest;" vertex="1" parent="RZ17mvf2KzQFwTA37UVQ-17">
          <mxGeometry y="110.8" width="212" height="37" as="geometry" />
        </mxCell>
        <mxCell id="RZ17mvf2KzQFwTA37UVQ-21" style="line;strokeWidth=1;fillColor=none;align=left;verticalAlign=middle;spacingTop=-1;spacingLeft=3;spacingRight=3;rotatable=0;labelPosition=right;points=[];portConstraint=eastwest;strokeColor=inherit;" vertex="1" parent="RZ17mvf2KzQFwTA37UVQ-17">
          <mxGeometry y="147.8" width="212" height="8" as="geometry" />
        </mxCell>
        <mxCell id="RZ17mvf2KzQFwTA37UVQ-22" value="+getType() : : SlideType" style="text;strokeColor=none;fillColor=none;align=left;verticalAlign=top;spacingLeft=4;spacingRight=4;overflow=hidden;rotatable=0;points=[[0,0.5],[1,0.5]];portConstraint=eastwest;" vertex="1" parent="RZ17mvf2KzQFwTA37UVQ-17">
          <mxGeometry y="155.8" width="212" height="37" as="geometry" />
        </mxCell>
        <mxCell id="RZ17mvf2KzQFwTA37UVQ-23" value="ImageSlide" style="swimlane;fontStyle=1;align=center;verticalAlign=top;childLayout=stackLayout;horizontal=1;startSize=44.8;horizontalStack=0;resizeParent=1;resizeParentMax=0;resizeLast=0;collapsible=0;marginBottom=0;" vertex="1" parent="1">
          <mxGeometry x="20" y="734" width="273" height="111.8" as="geometry" />
        </mxCell>
        <mxCell id="RZ17mvf2KzQFwTA37UVQ-24" value="+imageMeta: SlideImageMeta" style="text;strokeColor=none;fillColor=none;align=left;verticalAlign=top;spacingLeft=4;spacingRight=4;overflow=hidden;rotatable=0;points=[[0,0.5],[1,0.5]];portConstraint=eastwest;" vertex="1" parent="RZ17mvf2KzQFwTA37UVQ-23">
          <mxGeometry y="44.8" width="273" height="45" as="geometry" />
        </mxCell>
        <mxCell id="RZ17mvf2KzQFwTA37UVQ-25" style="line;strokeWidth=1;fillColor=none;align=left;verticalAlign=middle;spacingTop=-1;spacingLeft=3;spacingRight=3;rotatable=0;labelPosition=right;points=[];portConstraint=eastwest;strokeColor=inherit;" vertex="1" parent="RZ17mvf2KzQFwTA37UVQ-23">
          <mxGeometry y="89.8" width="273" height="22" as="geometry" />
        </mxCell>
        <mxCell id="RZ17mvf2KzQFwTA37UVQ-26" value="ScoreSlide" style="swimlane;fontStyle=1;align=center;verticalAlign=top;childLayout=stackLayout;horizontal=1;startSize=38.857142857142854;horizontalStack=0;resizeParent=1;resizeParentMax=0;resizeLast=0;collapsible=0;marginBottom=0;" vertex="1" parent="1">
          <mxGeometry x="343" y="722" width="208" height="135.85714285714286" as="geometry" />
        </mxCell>
        <mxCell id="RZ17mvf2KzQFwTA37UVQ-27" value="+category: Category" style="text;strokeColor=none;fillColor=none;align=left;verticalAlign=top;spacingLeft=4;spacingRight=4;overflow=hidden;rotatable=0;points=[[0,0.5],[1,0.5]];portConstraint=eastwest;" vertex="1" parent="RZ17mvf2KzQFwTA37UVQ-26">
          <mxGeometry y="38.857142857142854" width="208" height="39" as="geometry" />
        </mxCell>
        <mxCell id="RZ17mvf2KzQFwTA37UVQ-28" value="+scores: List&lt;Score&gt;" style="text;strokeColor=none;fillColor=none;align=left;verticalAlign=top;spacingLeft=4;spacingRight=4;overflow=hidden;rotatable=0;points=[[0,0.5],[1,0.5]];portConstraint=eastwest;" vertex="1" parent="RZ17mvf2KzQFwTA37UVQ-26">
          <mxGeometry y="77.85714285714286" width="208" height="39" as="geometry" />
        </mxCell>
        <mxCell id="RZ17mvf2KzQFwTA37UVQ-29" style="line;strokeWidth=1;fillColor=none;align=left;verticalAlign=middle;spacingTop=-1;spacingLeft=3;spacingRight=3;rotatable=0;labelPosition=right;points=[];portConstraint=eastwest;strokeColor=inherit;" vertex="1" parent="RZ17mvf2KzQFwTA37UVQ-26">
          <mxGeometry y="116.85714285714286" width="208" height="19" as="geometry" />
        </mxCell>
        <mxCell id="RZ17mvf2KzQFwTA37UVQ-30" value="SlideImageMeta" style="swimlane;fontStyle=1;align=center;verticalAlign=top;childLayout=stackLayout;horizontal=1;startSize=35.55555555555556;horizontalStack=0;resizeParent=1;resizeParentMax=0;resizeLast=0;collapsible=0;marginBottom=0;" vertex="1" parent="1">
          <mxGeometry x="41" y="916" width="231" height="161.55555555555554" as="geometry" />
        </mxCell>
        <mxCell id="RZ17mvf2KzQFwTA37UVQ-31" value="+id: Long" style="text;strokeColor=none;fillColor=none;align=left;verticalAlign=top;spacingLeft=4;spacingRight=4;overflow=hidden;rotatable=0;points=[[0,0.5],[1,0.5]];portConstraint=eastwest;" vertex="1" parent="RZ17mvf2KzQFwTA37UVQ-30">
          <mxGeometry y="35.55555555555556" width="231" height="36" as="geometry" />
        </mxCell>
        <mxCell id="RZ17mvf2KzQFwTA37UVQ-32" value="+name: String" style="text;strokeColor=none;fillColor=none;align=left;verticalAlign=top;spacingLeft=4;spacingRight=4;overflow=hidden;rotatable=0;points=[[0,0.5],[1,0.5]];portConstraint=eastwest;" vertex="1" parent="RZ17mvf2KzQFwTA37UVQ-30">
          <mxGeometry y="71.55555555555556" width="231" height="36" as="geometry" />
        </mxCell>
        <mxCell id="RZ17mvf2KzQFwTA37UVQ-33" value="+contentType: String" style="text;strokeColor=none;fillColor=none;align=left;verticalAlign=top;spacingLeft=4;spacingRight=4;overflow=hidden;rotatable=0;points=[[0,0.5],[1,0.5]];portConstraint=eastwest;" vertex="1" parent="RZ17mvf2KzQFwTA37UVQ-30">
          <mxGeometry y="107.55555555555556" width="231" height="36" as="geometry" />
        </mxCell>
        <mxCell id="RZ17mvf2KzQFwTA37UVQ-34" style="line;strokeWidth=1;fillColor=none;align=left;verticalAlign=middle;spacingTop=-1;spacingLeft=3;spacingRight=3;rotatable=0;labelPosition=right;points=[];portConstraint=eastwest;strokeColor=inherit;" vertex="1" parent="RZ17mvf2KzQFwTA37UVQ-30">
          <mxGeometry y="143.55555555555554" width="231" height="18" as="geometry" />
        </mxCell>
        <mxCell id="RZ17mvf2KzQFwTA37UVQ-35" value="Score" style="swimlane;fontStyle=1;align=center;verticalAlign=top;childLayout=stackLayout;horizontal=1;startSize=35.55555555555556;horizontalStack=0;resizeParent=1;resizeParentMax=0;resizeLast=0;collapsible=0;marginBottom=0;" vertex="1" parent="1">
          <mxGeometry x="399" y="1352" width="156" height="161.55555555555554" as="geometry" />
        </mxCell>
        <mxCell id="RZ17mvf2KzQFwTA37UVQ-36" value="+id: long" style="text;strokeColor=none;fillColor=none;align=left;verticalAlign=top;spacingLeft=4;spacingRight=4;overflow=hidden;rotatable=0;points=[[0,0.5],[1,0.5]];portConstraint=eastwest;" vertex="1" parent="RZ17mvf2KzQFwTA37UVQ-35">
          <mxGeometry y="35.55555555555556" width="156" height="36" as="geometry" />
        </mxCell>
        <mxCell id="RZ17mvf2KzQFwTA37UVQ-37" value="+points: double" style="text;strokeColor=none;fillColor=none;align=left;verticalAlign=top;spacingLeft=4;spacingRight=4;overflow=hidden;rotatable=0;points=[[0,0.5],[1,0.5]];portConstraint=eastwest;" vertex="1" parent="RZ17mvf2KzQFwTA37UVQ-35">
          <mxGeometry y="71.55555555555556" width="156" height="36" as="geometry" />
        </mxCell>
        <mxCell id="RZ17mvf2KzQFwTA37UVQ-38" value="+time: int" style="text;strokeColor=none;fillColor=none;align=left;verticalAlign=top;spacingLeft=4;spacingRight=4;overflow=hidden;rotatable=0;points=[[0,0.5],[1,0.5]];portConstraint=eastwest;" vertex="1" parent="RZ17mvf2KzQFwTA37UVQ-35">
          <mxGeometry y="107.55555555555556" width="156" height="36" as="geometry" />
        </mxCell>
        <mxCell id="RZ17mvf2KzQFwTA37UVQ-39" style="line;strokeWidth=1;fillColor=none;align=left;verticalAlign=middle;spacingTop=-1;spacingLeft=3;spacingRight=3;rotatable=0;labelPosition=right;points=[];portConstraint=eastwest;strokeColor=inherit;" vertex="1" parent="RZ17mvf2KzQFwTA37UVQ-35">
          <mxGeometry y="143.55555555555554" width="156" height="18" as="geometry" />
        </mxCell>
        <mxCell id="RZ17mvf2KzQFwTA37UVQ-40" value="SlideImageContent" style="swimlane;fontStyle=1;align=center;verticalAlign=top;childLayout=stackLayout;horizontal=1;startSize=38.857142857142854;horizontalStack=0;resizeParent=1;resizeParentMax=0;resizeLast=0;collapsible=0;marginBottom=0;" vertex="1" parent="1">
          <mxGeometry x="51" y="1146" width="212" height="135.85714285714286" as="geometry" />
        </mxCell>
        <mxCell id="RZ17mvf2KzQFwTA37UVQ-41" value="+id: Long" style="text;strokeColor=none;fillColor=none;align=left;verticalAlign=top;spacingLeft=4;spacingRight=4;overflow=hidden;rotatable=0;points=[[0,0.5],[1,0.5]];portConstraint=eastwest;" vertex="1" parent="RZ17mvf2KzQFwTA37UVQ-40">
          <mxGeometry y="38.857142857142854" width="212" height="39" as="geometry" />
        </mxCell>
        <mxCell id="RZ17mvf2KzQFwTA37UVQ-42" value="+content: byte[]" style="text;strokeColor=none;fillColor=none;align=left;verticalAlign=top;spacingLeft=4;spacingRight=4;overflow=hidden;rotatable=0;points=[[0,0.5],[1,0.5]];portConstraint=eastwest;" vertex="1" parent="RZ17mvf2KzQFwTA37UVQ-40">
          <mxGeometry y="77.85714285714286" width="212" height="39" as="geometry" />
        </mxCell>
        <mxCell id="RZ17mvf2KzQFwTA37UVQ-43" style="line;strokeWidth=1;fillColor=none;align=left;verticalAlign=middle;spacingTop=-1;spacingLeft=3;spacingRight=3;rotatable=0;labelPosition=right;points=[];portConstraint=eastwest;strokeColor=inherit;" vertex="1" parent="RZ17mvf2KzQFwTA37UVQ-40">
          <mxGeometry y="116.85714285714286" width="212" height="19" as="geometry" />
        </mxCell>
        <mxCell id="RZ17mvf2KzQFwTA37UVQ-44" value="Team" style="swimlane;fontStyle=1;align=center;verticalAlign=top;childLayout=stackLayout;horizontal=1;startSize=35.55555555555556;horizontalStack=0;resizeParent=1;resizeParentMax=0;resizeLast=0;collapsible=0;marginBottom=0;" vertex="1" parent="1">
          <mxGeometry x="561" y="1134" width="189" height="161.55555555555554" as="geometry" />
        </mxCell>
        <mxCell id="RZ17mvf2KzQFwTA37UVQ-45" value="+id: long" style="text;strokeColor=none;fillColor=none;align=left;verticalAlign=top;spacingLeft=4;spacingRight=4;overflow=hidden;rotatable=0;points=[[0,0.5],[1,0.5]];portConstraint=eastwest;" vertex="1" parent="RZ17mvf2KzQFwTA37UVQ-44">
          <mxGeometry y="35.55555555555556" width="189" height="36" as="geometry" />
        </mxCell>
        <mxCell id="RZ17mvf2KzQFwTA37UVQ-46" value="+name: String" style="text;strokeColor=none;fillColor=none;align=left;verticalAlign=top;spacingLeft=4;spacingRight=4;overflow=hidden;rotatable=0;points=[[0,0.5],[1,0.5]];portConstraint=eastwest;" vertex="1" parent="RZ17mvf2KzQFwTA37UVQ-44">
          <mxGeometry y="71.55555555555556" width="189" height="36" as="geometry" />
        </mxCell>
        <mxCell id="RZ17mvf2KzQFwTA37UVQ-47" value="+scores: List&lt;Score&gt;" style="text;strokeColor=none;fillColor=none;align=left;verticalAlign=top;spacingLeft=4;spacingRight=4;overflow=hidden;rotatable=0;points=[[0,0.5],[1,0.5]];portConstraint=eastwest;" vertex="1" parent="RZ17mvf2KzQFwTA37UVQ-44">
          <mxGeometry y="107.55555555555556" width="189" height="36" as="geometry" />
        </mxCell>
        <mxCell id="RZ17mvf2KzQFwTA37UVQ-48" style="line;strokeWidth=1;fillColor=none;align=left;verticalAlign=middle;spacingTop=-1;spacingLeft=3;spacingRight=3;rotatable=0;labelPosition=right;points=[];portConstraint=eastwest;strokeColor=inherit;" vertex="1" parent="RZ17mvf2KzQFwTA37UVQ-44">
          <mxGeometry y="143.55555555555554" width="189" height="18" as="geometry" />
        </mxCell>
        <mxCell id="RZ17mvf2KzQFwTA37UVQ-49" value="User" style="swimlane;fontStyle=1;align=center;verticalAlign=top;childLayout=stackLayout;horizontal=1;startSize=35.55555555555556;horizontalStack=0;resizeParent=1;resizeParentMax=0;resizeLast=0;collapsible=0;marginBottom=0;" vertex="1" parent="1">
          <mxGeometry x="337" y="20" width="171" height="161.55555555555554" as="geometry" />
        </mxCell>
        <mxCell id="RZ17mvf2KzQFwTA37UVQ-50" value="+id: Long" style="text;strokeColor=none;fillColor=none;align=left;verticalAlign=top;spacingLeft=4;spacingRight=4;overflow=hidden;rotatable=0;points=[[0,0.5],[1,0.5]];portConstraint=eastwest;" vertex="1" parent="RZ17mvf2KzQFwTA37UVQ-49">
          <mxGeometry y="35.55555555555556" width="171" height="36" as="geometry" />
        </mxCell>
        <mxCell id="RZ17mvf2KzQFwTA37UVQ-51" value="+username: String" style="text;strokeColor=none;fillColor=none;align=left;verticalAlign=top;spacingLeft=4;spacingRight=4;overflow=hidden;rotatable=0;points=[[0,0.5],[1,0.5]];portConstraint=eastwest;" vertex="1" parent="RZ17mvf2KzQFwTA37UVQ-49">
          <mxGeometry y="71.55555555555556" width="171" height="36" as="geometry" />
        </mxCell>
        <mxCell id="RZ17mvf2KzQFwTA37UVQ-52" value="+password: String" style="text;strokeColor=none;fillColor=none;align=left;verticalAlign=top;spacingLeft=4;spacingRight=4;overflow=hidden;rotatable=0;points=[[0,0.5],[1,0.5]];portConstraint=eastwest;" vertex="1" parent="RZ17mvf2KzQFwTA37UVQ-49">
          <mxGeometry y="107.55555555555556" width="171" height="36" as="geometry" />
        </mxCell>
        <mxCell id="RZ17mvf2KzQFwTA37UVQ-53" style="line;strokeWidth=1;fillColor=none;align=left;verticalAlign=middle;spacingTop=-1;spacingLeft=3;spacingRight=3;rotatable=0;labelPosition=right;points=[];portConstraint=eastwest;strokeColor=inherit;" vertex="1" parent="RZ17mvf2KzQFwTA37UVQ-49">
          <mxGeometry y="143.55555555555554" width="171" height="18" as="geometry" />
        </mxCell>
        <mxCell id="RZ17mvf2KzQFwTA37UVQ-54" value="Screen" style="swimlane;fontStyle=1;align=center;verticalAlign=top;childLayout=stackLayout;horizontal=1;startSize=35.55555555555556;horizontalStack=0;resizeParent=1;resizeParentMax=0;resizeLast=0;collapsible=0;marginBottom=0;" vertex="1" parent="1">
          <mxGeometry x="59" y="20" width="203" height="161.55555555555554" as="geometry" />
        </mxCell>
        <mxCell id="RZ17mvf2KzQFwTA37UVQ-55" value="+id: Long" style="text;strokeColor=none;fillColor=none;align=left;verticalAlign=top;spacingLeft=4;spacingRight=4;overflow=hidden;rotatable=0;points=[[0,0.5],[1,0.5]];portConstraint=eastwest;" vertex="1" parent="RZ17mvf2KzQFwTA37UVQ-54">
          <mxGeometry y="35.55555555555556" width="203" height="36" as="geometry" />
        </mxCell>
        <mxCell id="RZ17mvf2KzQFwTA37UVQ-56" value="+name: String" style="text;strokeColor=none;fillColor=none;align=left;verticalAlign=top;spacingLeft=4;spacingRight=4;overflow=hidden;rotatable=0;points=[[0,0.5],[1,0.5]];portConstraint=eastwest;" vertex="1" parent="RZ17mvf2KzQFwTA37UVQ-54">
          <mxGeometry y="71.55555555555556" width="203" height="36" as="geometry" />
        </mxCell>
        <mxCell id="RZ17mvf2KzQFwTA37UVQ-57" value="+status: ScreenStatus" style="text;strokeColor=none;fillColor=none;align=left;verticalAlign=top;spacingLeft=4;spacingRight=4;overflow=hidden;rotatable=0;points=[[0,0.5],[1,0.5]];portConstraint=eastwest;" vertex="1" parent="RZ17mvf2KzQFwTA37UVQ-54">
          <mxGeometry y="107.55555555555556" width="203" height="36" as="geometry" />
        </mxCell>
        <mxCell id="RZ17mvf2KzQFwTA37UVQ-58" style="line;strokeWidth=1;fillColor=none;align=left;verticalAlign=middle;spacingTop=-1;spacingLeft=3;spacingRight=3;rotatable=0;labelPosition=right;points=[];portConstraint=eastwest;strokeColor=inherit;" vertex="1" parent="RZ17mvf2KzQFwTA37UVQ-54">
          <mxGeometry y="143.55555555555554" width="203" height="18" as="geometry" />
        </mxCell>
        <mxCell id="RZ17mvf2KzQFwTA37UVQ-59" value="" style="curved=1;startArrow=diamondThin;startSize=14;startFill=0;endArrow=none;exitX=0.05;exitY=1;entryX=1;entryY=0.23;rounded=0;" edge="1" parent="1" source="RZ17mvf2KzQFwTA37UVQ-1" target="RZ17mvf2KzQFwTA37UVQ-6">
          <mxGeometry relative="1" as="geometry">
            <Array as="points">
              <mxPoint x="541" y="213" />
            </Array>
          </mxGeometry>
        </mxCell>
        <mxCell id="RZ17mvf2KzQFwTA37UVQ-60" value="1" style="edgeLabel;resizable=0;labelBackgroundColor=none;fontSize=12;align=right;verticalAlign=top;" vertex="1" parent="RZ17mvf2KzQFwTA37UVQ-59">
          <mxGeometry x="-1" relative="1" as="geometry" />
        </mxCell>
        <mxCell id="RZ17mvf2KzQFwTA37UVQ-61" value="*" style="edgeLabel;resizable=0;labelBackgroundColor=none;fontSize=12;align=left;verticalAlign=bottom;" vertex="1" parent="RZ17mvf2KzQFwTA37UVQ-59">
          <mxGeometry x="1" relative="1" as="geometry" />
        </mxCell>
        <mxCell id="RZ17mvf2KzQFwTA37UVQ-62" value="" style="curved=1;startArrow=diamondThin;startSize=14;startFill=0;endArrow=none;exitX=0.46;exitY=1;entryX=0.47;entryY=0;rounded=0;" edge="1" parent="1" source="RZ17mvf2KzQFwTA37UVQ-1" target="RZ17mvf2KzQFwTA37UVQ-12">
          <mxGeometry relative="1" as="geometry">
            <Array as="points">
              <mxPoint x="645" y="213" />
              <mxPoint x="645" y="891" />
            </Array>
          </mxGeometry>
        </mxCell>
        <mxCell id="RZ17mvf2KzQFwTA37UVQ-63" value="1" style="edgeLabel;resizable=0;labelBackgroundColor=none;fontSize=12;align=right;verticalAlign=top;" vertex="1" parent="RZ17mvf2KzQFwTA37UVQ-62">
          <mxGeometry x="-1" relative="1" as="geometry" />
        </mxCell>
        <mxCell id="RZ17mvf2KzQFwTA37UVQ-64" value="*" style="edgeLabel;resizable=0;labelBackgroundColor=none;fontSize=12;align=left;verticalAlign=bottom;" vertex="1" parent="RZ17mvf2KzQFwTA37UVQ-62">
          <mxGeometry x="1" relative="1" as="geometry" />
        </mxCell>
        <mxCell id="RZ17mvf2KzQFwTA37UVQ-65" value="" style="curved=1;startArrow=diamondThin;startSize=14;startFill=0;endArrow=none;exitX=0.5;exitY=1;entryX=0.5;entryY=0;rounded=0;" edge="1" parent="1" source="RZ17mvf2KzQFwTA37UVQ-6" target="RZ17mvf2KzQFwTA37UVQ-17">
          <mxGeometry relative="1" as="geometry">
            <Array as="points" />
          </mxGeometry>
        </mxCell>
        <mxCell id="RZ17mvf2KzQFwTA37UVQ-66" value="1" style="edgeLabel;resizable=0;labelBackgroundColor=none;fontSize=12;align=right;verticalAlign=top;" vertex="1" parent="RZ17mvf2KzQFwTA37UVQ-65">
          <mxGeometry x="-1" relative="1" as="geometry" />
        </mxCell>
        <mxCell id="RZ17mvf2KzQFwTA37UVQ-67" value="*" style="edgeLabel;resizable=0;labelBackgroundColor=none;fontSize=12;align=left;verticalAlign=bottom;" vertex="1" parent="RZ17mvf2KzQFwTA37UVQ-65">
          <mxGeometry x="1" relative="1" as="geometry" />
        </mxCell>
        <mxCell id="RZ17mvf2KzQFwTA37UVQ-68" value="" style="curved=1;startArrow=block;startSize=16;startFill=0;endArrow=none;exitX=0;exitY=0.96;entryX=0.5;entryY=0;rounded=0;" edge="1" parent="1" source="RZ17mvf2KzQFwTA37UVQ-17" target="RZ17mvf2KzQFwTA37UVQ-23">
          <mxGeometry relative="1" as="geometry">
            <Array as="points">
              <mxPoint x="157" y="697" />
            </Array>
          </mxGeometry>
        </mxCell>
        <mxCell id="RZ17mvf2KzQFwTA37UVQ-69" value="" style="curved=1;startArrow=block;startSize=16;startFill=0;endArrow=none;exitX=1;exitY=0.96;entryX=0.5;entryY=0;rounded=0;" edge="1" parent="1" source="RZ17mvf2KzQFwTA37UVQ-17" target="RZ17mvf2KzQFwTA37UVQ-26">
          <mxGeometry relative="1" as="geometry">
            <Array as="points">
              <mxPoint x="447" y="697" />
            </Array>
          </mxGeometry>
        </mxCell>
        <mxCell id="RZ17mvf2KzQFwTA37UVQ-70" value="" style="curved=1;startArrow=diamondThin;startSize=14;startFill=0;endArrow=none;exitX=0.5;exitY=1;entryX=0.5;entryY=0;rounded=0;" edge="1" parent="1" source="RZ17mvf2KzQFwTA37UVQ-23" target="RZ17mvf2KzQFwTA37UVQ-30">
          <mxGeometry relative="1" as="geometry">
            <Array as="points" />
          </mxGeometry>
        </mxCell>
        <mxCell id="RZ17mvf2KzQFwTA37UVQ-71" value="" style="curved=1;startArrow=diamondThin;startSize=14;startFill=0;endArrow=none;exitX=0;exitY=0.98;entryX=0;entryY=0.22;rounded=0;" edge="1" parent="1" source="RZ17mvf2KzQFwTA37UVQ-26" target="RZ17mvf2KzQFwTA37UVQ-12">
          <mxGeometry relative="1" as="geometry">
            <Array as="points">
              <mxPoint x="302" y="891" />
            </Array>
          </mxGeometry>
        </mxCell>
        <mxCell id="RZ17mvf2KzQFwTA37UVQ-72" value="" style="curved=1;startArrow=diamondThin;startSize=14;startFill=0;endArrow=none;exitX=0.5;exitY=1;entryX=0.35;entryY=0;rounded=0;" edge="1" parent="1" source="RZ17mvf2KzQFwTA37UVQ-26" target="RZ17mvf2KzQFwTA37UVQ-35">
          <mxGeometry relative="1" as="geometry">
            <Array as="points">
              <mxPoint x="447" y="1327" />
            </Array>
          </mxGeometry>
        </mxCell>
        <mxCell id="RZ17mvf2KzQFwTA37UVQ-73" value="*" style="edgeLabel;resizable=0;labelBackgroundColor=none;fontSize=12;align=left;verticalAlign=bottom;" vertex="1" parent="RZ17mvf2KzQFwTA37UVQ-72">
          <mxGeometry x="1" relative="1" as="geometry" />
        </mxCell>
        <mxCell id="RZ17mvf2KzQFwTA37UVQ-74" value="" style="curved=1;startArrow=diamondThin;startSize=14;startFill=0;endArrow=none;exitX=0.5;exitY=1;entryX=0.5;entryY=0;rounded=0;" edge="1" parent="1" source="RZ17mvf2KzQFwTA37UVQ-30" target="RZ17mvf2KzQFwTA37UVQ-40">
          <mxGeometry relative="1" as="geometry">
            <Array as="points" />
          </mxGeometry>
        </mxCell>
        <mxCell id="RZ17mvf2KzQFwTA37UVQ-75" value="" style="curved=1;startArrow=diamondThin;startSize=14;startFill=0;endArrow=none;exitX=0.53;exitY=0;entryX=0.54;entryY=1;rounded=0;" edge="1" parent="1" source="RZ17mvf2KzQFwTA37UVQ-12" target="RZ17mvf2KzQFwTA37UVQ-1">
          <mxGeometry relative="1" as="geometry">
            <Array as="points">
              <mxPoint x="665" y="891" />
              <mxPoint x="665" y="213" />
            </Array>
          </mxGeometry>
        </mxCell>
        <mxCell id="RZ17mvf2KzQFwTA37UVQ-76" value="" style="curved=1;startArrow=diamondThin;startSize=14;startFill=0;endArrow=none;exitX=0.29;exitY=1;entryX=0.16;entryY=0;rounded=0;" edge="1" parent="1" source="RZ17mvf2KzQFwTA37UVQ-12" target="RZ17mvf2KzQFwTA37UVQ-44">
          <mxGeometry relative="1" as="geometry">
            <Array as="points">
              <mxPoint x="571" y="1109" />
            </Array>
          </mxGeometry>
        </mxCell>
        <mxCell id="RZ17mvf2KzQFwTA37UVQ-77" value="*" style="edgeLabel;resizable=0;labelBackgroundColor=none;fontSize=12;align=left;verticalAlign=bottom;" vertex="1" parent="RZ17mvf2KzQFwTA37UVQ-76">
          <mxGeometry x="1" relative="1" as="geometry" />
        </mxCell>
        <mxCell id="RZ17mvf2KzQFwTA37UVQ-78" value="" style="curved=1;startArrow=diamondThin;startSize=14;startFill=0;endArrow=none;exitX=0.54;exitY=0;entryX=0.53;entryY=1;rounded=0;" edge="1" parent="1" source="RZ17mvf2KzQFwTA37UVQ-44" target="RZ17mvf2KzQFwTA37UVQ-12">
          <mxGeometry relative="1" as="geometry">
            <Array as="points">
              <mxPoint x="665" y="1109" />
            </Array>
          </mxGeometry>
        </mxCell>
        <mxCell id="RZ17mvf2KzQFwTA37UVQ-79" value="" style="curved=1;startArrow=diamondThin;startSize=14;startFill=0;endArrow=none;exitX=0.16;exitY=1;entryX=0.97;entryY=0;rounded=0;" edge="1" parent="1" source="RZ17mvf2KzQFwTA37UVQ-44" target="RZ17mvf2KzQFwTA37UVQ-35">
          <mxGeometry relative="1" as="geometry">
            <Array as="points">
              <mxPoint x="571" y="1327" />
            </Array>
          </mxGeometry>
        </mxCell>
        <mxCell id="RZ17mvf2KzQFwTA37UVQ-80" value="*" style="edgeLabel;resizable=0;labelBackgroundColor=none;fontSize=12;align=left;verticalAlign=bottom;" vertex="1" parent="RZ17mvf2KzQFwTA37UVQ-79">
          <mxGeometry x="1" relative="1" as="geometry" />
        </mxCell>
        <mxCell id="RZ17mvf2KzQFwTA37UVQ-81" value="" style="curved=1;startArrow=diamondThin;startSize=14;startFill=0;endArrow=none;exitX=1;exitY=0.23;entryX=0.54;entryY=1;rounded=0;" edge="1" parent="1" source="RZ17mvf2KzQFwTA37UVQ-35" target="RZ17mvf2KzQFwTA37UVQ-44">
          <mxGeometry relative="1" as="geometry">
            <Array as="points">
              <mxPoint x="665" y="1327" />
            </Array>
          </mxGeometry>
        </mxCell>
        <mxCell id="RZ17mvf2KzQFwTA37UVQ-82" value="" style="curved=1;startArrow=diamondThin;startSize=14;startFill=0;endArrow=none;exitX=0.45;exitY=0;entryX=0.57;entryY=1;rounded=0;" edge="1" parent="1" source="RZ17mvf2KzQFwTA37UVQ-35" target="RZ17mvf2KzQFwTA37UVQ-26">
          <mxGeometry relative="1" as="geometry">
            <Array as="points">
              <mxPoint x="467" y="1327" />
              <mxPoint x="467" y="891" />
            </Array>
          </mxGeometry>
        </mxCell>
        <mxCell id="RZ17mvf2KzQFwTA37UVQ-83" value="" style="curved=1;startArrow=diamondThin;startSize=14;startFill=0;endArrow=none;exitX=0.5;exitY=1;entryX=0;entryY=0.05;rounded=0;" edge="1" parent="1" source="RZ17mvf2KzQFwTA37UVQ-54" target="RZ17mvf2KzQFwTA37UVQ-6">
          <mxGeometry relative="1" as="geometry">
            <Array as="points">
              <mxPoint x="161" y="213" />
            </Array>
          </mxGeometry>
        </mxCell>
      </root>
    </mxGraphModel>
  </diagram>
</mxfile>
